<?xml version="1.0" encoding="utf-8"?>
<!-- Generator: Adobe Illustrator 24.0.0, SVG Export Plug-In . SVG Version: 6.00 Build 0)  -->
<svg version="1.1" xmlns="http://www.w3.org/2000/svg" xmlns:xlink="http://www.w3.org/1999/xlink" x="0px" y="0px"
	 viewBox="0 0 750 500" style="enable-background:new 0 0 750 500;" xml:space="preserve">
<style type="text/css">
	.st0{fill:#DBE8F0;}
	.st1{opacity:0.5;}
	.st2{fill:#FFFFFF;}
	.st3{fill:#7B1FA2;}
	.st4{fill:#FFA726;}
	.st5{fill:url(#SVGID_1_);}
	.st6{fill:url(#SVGID_2_);}
	.st7{opacity:0.8;fill:url(#SVGID_3_);}
	.st8{opacity:0.8;fill:url(#SVGID_4_);}
	.st9{opacity:0.8;fill:url(#SVGID_5_);}
	.st10{opacity:0.8;fill:url(#SVGID_6_);}
	.st11{opacity:0.8;fill:url(#SVGID_7_);}
	.st12{opacity:0.8;fill:url(#SVGID_8_);}
	.st13{fill:#CBDFEF;}
	.st14{opacity:0.8;fill:url(#SVGID_9_);}
	.st15{fill:url(#SVGID_10_);}
	.st16{fill:#809297;}
	.st17{fill:url(#XMLID_11_);}
	.st18{fill:#8A9EA2;}
	.st19{fill:url(#XMLID_12_);}
	.st20{fill:#92A7AC;}
	.st21{fill:url(#XMLID_13_);}
	.st22{opacity:0.1;fill:#FFFFFF;}
	.st23{fill:#FDC870;}
	.st24{fill:url(#SVGID_11_);}
	.st25{fill:url(#XMLID_14_);}
	.st26{fill:url(#SVGID_12_);}
	.st27{fill:url(#SVGID_13_);}
	.st28{fill:url(#SVGID_14_);}
	.st29{opacity:0.7;fill:url(#SVGID_15_);}
	.st30{opacity:0.7;fill:url(#SVGID_16_);}
	.st31{fill:url(#SVGID_17_);}
	.st32{opacity:0.8;fill:url(#SVGID_18_);}
	.st33{fill:url(#SVGID_19_);}
	.st34{fill:#FFB300;}
	.st35{fill:#FFA000;}
	.st36{fill:#FFCA28;}
	.st37{opacity:0.7;fill:url(#SVGID_20_);}
	.st38{opacity:0.7;fill:url(#SVGID_21_);}
	.st39{fill:url(#SVGID_22_);}
	.st40{opacity:0.8;fill:url(#SVGID_23_);}
	.st41{fill:url(#SVGID_24_);}
	.st42{fill:#D32F2F;}
	.st43{opacity:0.8;fill:url(#SVGID_25_);}
	.st44{fill:#EF5350;}
	.st45{fill:none;stroke:#FFFFFF;stroke-width:1.0404;stroke-miterlimit:10;}
	.st46{opacity:0.7;fill:url(#SVGID_26_);}
	.st47{opacity:0.7;fill:url(#SVGID_27_);}
	.st48{fill:url(#SVGID_28_);}
	.st49{fill:#25284C;}
	.st50{fill:#111638;}
	.st51{fill:#F5F5F5;}
	.st52{fill:#7B92B9;}
	.st53{fill:#6A7EA2;}
	.st54{fill:none;stroke:#FFFFFF;stroke-width:0.7521;stroke-miterlimit:10;}
	.st55{opacity:0.8;fill:url(#SVGID_29_);}
	.st56{opacity:0.8;fill:url(#SVGID_30_);}
	.st57{opacity:0.8;fill:url(#SVGID_31_);}
	.st58{fill:url(#SVGID_32_);}
	.st59{fill:url(#SVGID_33_);}
	.st60{opacity:0.7;fill:url(#SVGID_34_);}
	.st61{fill:url(#SVGID_35_);}
	.st62{fill:none;stroke:#FFFFFF;stroke-width:1.0404;stroke-linecap:round;stroke-linejoin:round;stroke-miterlimit:10;}
	.st63{fill:#FFEE58;}
	.st64{fill:none;stroke:#FFFFFF;stroke-width:0.5202;stroke-linecap:round;stroke-linejoin:round;stroke-miterlimit:10;}
	.st65{fill:url(#SVGID_36_);}
	.st66{fill:#222221;}
</style>
<g id="Background">
</g>
<g id="Object">
	<g>
		<linearGradient id="SVGID_1_" gradientUnits="userSpaceOnUse" x1="390.4036" y1="377.0382" x2="390.4036" y2="67.4872">
			<stop  offset="1.860120e-03" style="stop-color:#AC24B9"/>
			<stop  offset="1" style="stop-color:#2E2142"/>
		</linearGradient>
		<path class="st5" d="M558.43,300.9c-0.49,2.83-1.06,5.64-1.71,8.44c-0.5,2.13-1.04,4.25-1.62,6.35
			c-3.22,11.6-7.8,23.19-14.13,33.44c-6.46,10.49-14.76,19.6-25.32,25.94c-5.68,3.42-11.77,5.89-18.1,7.74h-215.6
			c-20.85-11.32-39.15-31.24-35.17-54.57c3.46-20.3,6.71-40.55-0.41-59.31c-5.18-13.61-15.37-24.8-21.11-38.19
			c-14.21-33.22,3.66-63.3,30.16-81.75c0.96-0.67,1.93-1.32,2.91-1.96c0.23-0.15,0.47-0.3,0.7-0.45c1.08-0.69,2.15-1.41,3.2-2.14
			c2.28-1.59,4.48-3.26,6.64-5.02h0.01c1.62-1.32,3.21-2.67,4.78-4.07c0.37-0.32,0.75-0.65,1.11-0.99c2.16-1.94,4.28-3.94,6.37-5.98
			c1.1-1.07,2.19-2.16,3.28-3.25c8.48-8.51,16.66-17.42,25.62-25.18c8.54-7.39,17.79-13.74,28.69-17.7
			c6.81-2.47,13.81-4.2,20.88-5.18c27.95-3.93,57.03,3.52,79.72,20.9c1.11,0.85,2.22,1.73,3.32,2.63
			c11.73,9.59,22.52,21.82,27.29,35.94c6.01,17.77,14.87,34.92,31.03,45.49c13.33,8.71,25.95,14.49,36.57,27.15
			c3.83,4.56,7.13,9.37,9.94,14.38c2.29,4.09,4.26,8.3,5.92,12.62c2.21,5.75,3.87,11.68,5.03,17.73
			C561.39,269.23,561.15,285.27,558.43,300.9z"/>
		<linearGradient id="SVGID_2_" gradientUnits="userSpaceOnUse" x1="237.4226" y1="373.9763" x2="220.5291" y2="267.5467">
			<stop  offset="1.860120e-03" style="stop-color:#AC24B9"/>
			<stop  offset="1" style="stop-color:#2E2142"/>
		</linearGradient>
		<path class="st6" d="M222.86,336.93c-0.33,5.89,0.02,12.09,2.97,17.2c2.48,4.29,8.29,7.58,12.31,4.68
			c3.05-2.2,3.27-6.72,2.25-10.34c-1.02-3.62-2.96-7.02-3.24-10.77c-0.44-5.9,6.55-21.03-3.94-21.71
			C223.75,315.38,223.19,331.1,222.86,336.93z"/>
		<g>
			<linearGradient id="SVGID_3_" gradientUnits="userSpaceOnUse" x1="301.068" y1="376.2153" x2="304.2902" y2="331.984">
				<stop  offset="0" style="stop-color:#FFFFFF;stop-opacity:0"/>
				<stop  offset="1" style="stop-color:#662D8D"/>
			</linearGradient>
			<ellipse class="st7" cx="302.41" cy="357.81" rx="20.34" ry="8.01"/>
			<linearGradient id="SVGID_4_" gradientUnits="userSpaceOnUse" x1="404.8232" y1="377.2717" x2="408.0453" y2="333.0406">
				<stop  offset="0" style="stop-color:#FFFFFF;stop-opacity:0"/>
				<stop  offset="1" style="stop-color:#662D8D"/>
			</linearGradient>
			<ellipse class="st8" cx="406.16" cy="358.86" rx="20.34" ry="8.01"/>
			<linearGradient id="SVGID_5_" gradientUnits="userSpaceOnUse" x1="412.8829" y1="329.3869" x2="268.7646" y2="327.6294">
				<stop  offset="0" style="stop-color:#FFFFFF;stop-opacity:0"/>
				<stop  offset="1" style="stop-color:#662D8D"/>
			</linearGradient>
			<polygon class="st9" points="288.91,322.53 307.3,322.53 348.18,341.57 342.83,353.62 361.98,353.62 403.56,327.83 
				352.65,310.02 322.4,303.2 			"/>
			<linearGradient id="SVGID_6_" gradientUnits="userSpaceOnUse" x1="371.1505" y1="185.0316" x2="293.2332" y2="272.3222">
				<stop  offset="0" style="stop-color:#FFFFFF;stop-opacity:0"/>
				<stop  offset="1" style="stop-color:#662D8D"/>
			</linearGradient>
			<rect x="292.7" y="183.41" class="st10" width="100.79" height="66.12"/>
			<linearGradient id="SVGID_7_" gradientUnits="userSpaceOnUse" x1="609.8162" y1="316.0739" x2="444.283" y2="316.0739">
				<stop  offset="0" style="stop-color:#FFFFFF;stop-opacity:0"/>
				<stop  offset="1" style="stop-color:#662D8D"/>
			</linearGradient>
			<path class="st11" d="M558.43,283.01v17.89c-0.49,2.83-1.06,5.64-1.71,8.44c-0.5,2.13-1.04,4.25-1.62,6.35
				c-3.22,11.6-7.8,23.19-14.13,33.44h-52.68v-66.12H558.43z"/>
			<linearGradient id="SVGID_8_" gradientUnits="userSpaceOnUse" x1="585.6008" y1="266.454" x2="409.1978" y2="266.454">
				<stop  offset="0" style="stop-color:#FFFFFF;stop-opacity:0"/>
				<stop  offset="1" style="stop-color:#662D8D"/>
			</linearGradient>
			<path class="st12" d="M558.43,253.91v46.99c-0.49,2.83-1.06,5.64-1.71,8.44H409.74v-85.78h137.74c2.29,4.09,4.26,8.3,5.92,12.62
				C555.61,241.93,557.27,247.86,558.43,253.91z"/>
			<g>
				<path class="st13" d="M442.71,288.48v-47.2H337.2v47.2l0,0c0,7.8,5.15,15.59,15.45,21.54c20.6,11.9,54.01,11.9,74.61,0
					C437.56,304.07,442.71,296.27,442.71,288.48z"/>
				<linearGradient id="SVGID_9_" gradientUnits="userSpaceOnUse" x1="382.0848" y1="280.1077" x2="461.4039" y2="280.1077">
					<stop  offset="0" style="stop-color:#FFFFFF;stop-opacity:0"/>
					<stop  offset="1" style="stop-color:#662D8D"/>
				</linearGradient>
				<path class="st14" d="M442.71,288.48v-47.2H337.2v47.2l0,0c0,7.8,5.15,15.59,15.45,21.54c20.6,11.9,54.01,11.9,74.61,0
					C437.56,304.07,442.71,296.27,442.71,288.48z"/>
				<ellipse class="st2" cx="389.96" cy="241.28" rx="52.76" ry="30.46"/>
				<g>
					<linearGradient id="SVGID_10_" gradientUnits="userSpaceOnUse" x1="389.9554" y1="186.428" x2="389.9554" y2="290.8728">
						<stop  offset="1.694780e-03" style="stop-color:#00D4C8"/>
						<stop  offset="1" style="stop-color:#00D2C7;stop-opacity:0"/>
					</linearGradient>
					<ellipse class="st15" cx="389.96" cy="235.36" rx="52.76" ry="30.46"/>
					<g>
						<path id="XMLID_914_" class="st16" d="M402.82,226.26c-0.18,5.5-6.27,9.76-13.58,9.52c-7.32-0.25-13.1-4.91-12.91-10.41
							c0.19-5.5,6.27-9.76,13.58-9.52C397.22,216.1,403,220.76,402.82,226.26z"/>
						<linearGradient id="XMLID_11_" gradientUnits="userSpaceOnUse" x1="376.3183" y1="225.8148" x2="402.8226" y2="225.8148">
							<stop  offset="3.946110e-03" style="stop-color:#FFFFFF;stop-opacity:0"/>
							<stop  offset="1" style="stop-color:#92A7AC"/>
						</linearGradient>
						<path id="XMLID_913_" class="st17" d="M402.82,226.26c-0.18,5.5-6.27,9.76-13.58,9.52c-7.32-0.25-13.1-4.91-12.91-10.41
							c0.19-5.5,6.27-9.76,13.58-9.52C397.22,216.1,403,220.76,402.82,226.26z"/>
						<path id="XMLID_912_" class="st18" d="M411.6,214.4c-0.23,6.71-10.09,11.82-22.03,11.42c-11.94-0.4-21.44-6.16-21.21-12.87
							s10.09-11.82,22.03-11.42C402.33,201.93,411.83,207.69,411.6,214.4z"/>
						<linearGradient id="XMLID_12_" gradientUnits="userSpaceOnUse" x1="382.5645" y1="213.6711" x2="407.6266" y2="213.6711">
							<stop  offset="3.946110e-03" style="stop-color:#FFFFFF;stop-opacity:0"/>
							<stop  offset="1" style="stop-color:#92A7AC"/>
						</linearGradient>
						<path id="XMLID_907_" class="st19" d="M411.6,214.4c-0.23,6.71-10.09,11.82-22.03,11.42c-11.94-0.4-21.44-6.16-21.21-12.87
							s10.09-11.82,22.03-11.42C402.33,201.93,411.83,207.69,411.6,214.4z"/>
						
							<ellipse id="XMLID_906_" transform="matrix(0.0336 -0.9994 0.9994 0.0336 171.0728 589.2402)" class="st20" cx="390.23" cy="206.16" rx="12.15" ry="21.63"/>
						<linearGradient id="XMLID_13_" gradientUnits="userSpaceOnUse" x1="378.6029" y1="206.1586" x2="408.7593" y2="206.1586">
							<stop  offset="3.946110e-03" style="stop-color:#FFFFFF;stop-opacity:0"/>
							<stop  offset="1" style="stop-color:#92A7AC"/>
						</linearGradient>
						<path id="XMLID_905_" class="st21" d="M411.85,206.89c-0.23,6.71-10.09,11.82-22.03,11.42s-21.44-6.16-21.21-12.87
							c0.23-6.71,10.09-11.82,22.03-11.42C402.58,194.42,412.08,200.18,411.85,206.89z"/>
						<path id="XMLID_904_" class="st22" d="M371.87,208.92c-0.6,0.3-1.46-0.22-1.92-1.15c-0.46-0.93-0.36-1.93,0.24-2.22
							c0.6-0.3,1.46,0.22,1.92,1.15C372.57,207.63,372.46,208.62,371.87,208.92z"/>
						<path id="XMLID_897_" class="st22" d="M373.03,210.72c-0.39,0.2-0.85,0.08-1.02-0.26c-0.17-0.34,0.01-0.78,0.4-0.98
							c0.39-0.2,0.85-0.08,1.02,0.26C373.61,210.09,373.43,210.53,373.03,210.72z"/>
						<path id="XMLID_896_" class="st22" d="M371.94,217.01c-0.6,0.3-1.46-0.22-1.92-1.15c-0.46-0.93-0.36-1.93,0.24-2.22
							c0.6-0.3,1.46,0.22,1.92,1.15C372.64,215.71,372.53,216.71,371.94,217.01z"/>
						<path id="XMLID_895_" class="st22" d="M373.1,218.81c-0.39,0.2-0.85,0.08-1.02-0.26c-0.17-0.34,0.01-0.78,0.4-0.98
							c0.39-0.2,0.85-0.08,1.02,0.26C373.68,218.18,373.5,218.61,373.1,218.81z"/>
						<path id="XMLID_894_" class="st23" d="M429.31,155.47c0.14-21.8-17.39-36.3-39.12-36.43c-21.73-0.14-39.44,14.13-39.58,35.94
							c-0.14,21.36,10.78,24.59,16.35,35.57c1.74,3.44,1.1,6.49,1.1,6.49c-0.05,8.29,8.97,12.99,21.55,13.07
							c12.58,0.08,21.66-4.5,21.72-12.79c0,0-0.6-3.06,1.19-6.47C418.22,179.92,429.17,176.82,429.31,155.47z"/>
						<linearGradient id="SVGID_11_" gradientUnits="userSpaceOnUse" x1="380.841" y1="150.3352" x2="414.9668" y2="190.7173">
							<stop  offset="3.946110e-03" style="stop-color:#FFFFFF;stop-opacity:0"/>
							<stop  offset="1" style="stop-color:#FDC870"/>
						</linearGradient>
						<path class="st24" d="M429.31,155.47c-0.01,1.33-0.06,2.59-0.15,3.8c-0.07,0.91-0.16,1.8-0.28,2.64
							c-0.57,4.33-1.69,7.74-3.11,10.61c-0.03,0.06-0.06,0.11-0.08,0.17c-3.61,7.12-9.12,10.89-12.77,17.4
							c-0.15,0.24-0.28,0.5-0.41,0.75c-1.79,3.41-1.19,6.47-1.19,6.47c0,0.33-0.02,0.65-0.06,0.97c-0.01,0.15-0.02,0.29-0.05,0.43
							c0,0.07-0.02,0.15-0.03,0.22c-0.02,0.14-0.04,0.28-0.07,0.41c-0.02,0.14-0.05,0.28-0.09,0.41c-0.04,0.19-0.1,0.38-0.15,0.56
							c0,0.02-0.01,0.03-0.02,0.05c-0.16,0.52-0.37,1.02-0.62,1.5c-0.01,0.03-0.02,0.06-0.04,0.09c-2.15,4.1-7.21,6.74-13.96,7.72
							c-2.06,0.31-4.28,0.46-6.62,0.44c-12.58-0.08-21.61-4.77-21.56-13.07c0,0,0.64-3.05-1.11-6.49
							c-5.57-10.98-16.48-14.22-16.35-35.57c0.14-21.8,17.85-36.07,39.58-35.94C411.91,119.17,429.45,133.67,429.31,155.47z"/>
						
							<linearGradient id="XMLID_14_" gradientUnits="userSpaceOnUse" x1="421.1248" y1="196.8242" x2="421.1248" y2="216.5162" gradientTransform="matrix(0.9996 -0.0273 0.0273 0.9996 -37.067 -40.0028)">
							<stop  offset="3.946110e-03" style="stop-color:#FFFFFF;stop-opacity:0"/>
							<stop  offset="1" style="stop-color:#FDC870"/>
						</linearGradient>
						<path id="XMLID_828_" class="st25" d="M402.41,174.33c-0.69-4.14-5.34-9.62-8.75-4.23c-2.36,3.73-2.11,8.95-2.11,13.31v0.27
							c-0.39,0.03-0.78,0.05-1.16,0.06c-0.12,0-0.22,0.02-0.31,0.05c-0.09-0.03-0.19-0.05-0.31-0.06c-0.38-0.01-0.76-0.03-1.15-0.07
							v-0.25c0.06-3.77,0.07-7.63-1.07-11.22c-1.79-5.67-7.03-5.42-9.1-0.09c-1.97,5.08-0.13,8.99,3.35,11.31
							c1.37,0.91,3,1.58,4.75,1.97c0,0.1-0.01,0.2-0.01,0.29c-0.02,2.81-0.03,5.62-0.05,8.43c-0.02,2.5-0.03,5-0.05,7.5
							c-0.01,1.13-0.01,2.25-0.02,3.37c-0.01,1.67-0.02,3.33-0.03,4.99c0.67,0.05,1.36,0.09,2.05,0.11
							c0.01-1.72,0.02-3.43,0.03-5.15c0.01-1.14,0.02-2.27,0.03-3.41c0.01-2.5,0.03-5.01,0.05-7.51c0.01-2.76,0.03-5.53,0.05-8.29
							c0.38,0.04,0.77,0.07,1.16,0.08c0.11,0,0.21-0.01,0.31-0.04c0.09,0.03,0.19,0.05,0.3,0.04c0.39,0,0.78-0.03,1.17-0.06
							c-0.02,2.77-0.04,5.55-0.05,8.32c-0.02,2.51-0.04,5.01-0.05,7.52c-0.01,1.12-0.02,2.23-0.02,3.35
							c-0.01,0.26-0.01,0.53-0.01,0.79c-0.01,1.45-0.02,2.89-0.03,4.35v0.01c0.01,0,0.01,0,0.02,0c0.01,0,0.01,0,0.02,0
							c0.02,0,0.03,0,0.05-0.01c0.01,0.01,0.02,0,0.03,0h0.14c0.23-0.01,0.45-0.02,0.67-0.03c0.2-0.01,0.39-0.02,0.58-0.03
							c0.19-0.01,0.37-0.03,0.55-0.04c0.01-1.66,0.02-3.33,0.03-4.99c0-0.49,0.01-0.98,0.01-1.47c0-0.58,0.01-1.17,0.01-1.75
							c0.02-2.51,0.03-5.02,0.05-7.53c0.01-2.83,0.03-5.67,0.05-8.5v-0.27C399.04,184.38,403.48,180.77,402.41,174.33z
							 M379.75,176.15c-0.02-2.27,2.3-9.07,5.14-5.07c2.19,3.09,1.89,8.12,1.72,12.28C382.94,182.59,379.79,180.51,379.75,176.15z
							 M393.56,183.41c-0.12-4.17-0.36-9.2,1.87-12.26c2.9-3.97,5.13,2.86,5.08,5.13C400.41,180.64,397.23,182.68,393.56,183.41z"/>
						
							<linearGradient id="SVGID_12_" gradientUnits="userSpaceOnUse" x1="434.1879" y1="212.8652" x2="404.0345" y2="162.2075" gradientTransform="matrix(0.9996 -0.0273 0.0273 0.9996 -37.067 -40.0028)">
							<stop  offset="3.946110e-03" style="stop-color:#FFFFFF;stop-opacity:0"/>
							<stop  offset="1" style="stop-color:#FFFFFF"/>
						</linearGradient>
						<path class="st26" d="M408.9,150.06c-10.6,6.51-28.05,6.99-38.98,1.06c-10.93-5.92-11.21-16-0.61-22.51
							c10.6-6.51,28.05-6.99,38.98-1.06C419.22,133.48,419.49,143.55,408.9,150.06z"/>
						<linearGradient id="SVGID_13_" gradientUnits="userSpaceOnUse" x1="369.1363" y1="175.6306" x2="336.5486" y2="159.8492">
							<stop  offset="3.946110e-03" style="stop-color:#FFFFFF;stop-opacity:0"/>
							<stop  offset="1" style="stop-color:#FFFFFF"/>
						</linearGradient>
						<path class="st27" d="M356.06,166.41c1.84,5.33,5.27,10.23,8.91,14.34c3.8,4.31,8.36,8.58,9.15,14.27
							c0.11,0.79,0.15,1.62,0.54,2.32c0.39,0.7,1.27,1.21,2,0.88c0.37-0.17,0.63-0.52,0.84-0.87c1.55-2.5,2.1-5.6,1.49-8.48
							c-0.98-4.63-4.56-7.99-7.55-11.42c-2.91-3.33-5.39-7.6-6.32-11.96c-0.58-2.74-0.76-5.55-1.35-8.29
							c-0.28-1.31-0.67-2.62-1.46-3.7c-0.79-1.08-2.05-1.89-3.38-1.85c-1.42,0.05-2.68,1.06-3.36,2.31
							c-0.68,1.25-0.85,2.71-0.88,4.13C354.61,160.95,355.13,163.74,356.06,166.41z"/>
						<linearGradient id="SVGID_14_" gradientUnits="userSpaceOnUse" x1="385.1878" y1="209.885" x2="412.9565" y2="194.9326">
							<stop  offset="3.946110e-03" style="stop-color:#FFFFFF;stop-opacity:0"/>
							<stop  offset="1" style="stop-color:#FDC870"/>
						</linearGradient>
						<path class="st28" d="M429.31,155.47c0,1.32-0.05,2.58-0.15,3.8c-0.07,0.91-0.16,1.8-0.28,2.64
							c-0.58,4.17-1.7,7.63-3.11,10.61c-0.03,0.06-0.06,0.11-0.08,0.17c-3.61,7.12-9.12,10.89-12.77,17.4
							c-0.15,0.24-0.28,0.5-0.41,0.75c-1.79,3.41-1.19,6.47-1.19,6.47c0,0.33-0.02,0.65-0.06,0.97c-0.01,0.15-0.02,0.29-0.05,0.43
							c0,0.07-0.02,0.15-0.03,0.22c-0.02,0.14-0.04,0.28-0.07,0.41c-0.02,0.14-0.05,0.28-0.09,0.41c-0.04,0.19-0.1,0.38-0.15,0.56
							c0,0.02-0.01,0.03-0.02,0.05c-0.16,0.52-0.37,1.02-0.62,1.5c-0.01,0.03-0.02,0.06-0.04,0.09c1.12,1.54,1.72,3.21,1.67,4.95
							c-0.05,1.31-0.46,2.56-1.19,3.72c0.64,1.2,0.98,2.48,0.93,3.79c-0.13,4.01-3.7,7.44-9.1,9.47c0.23,0.77,0.34,1.57,0.32,2.39
							c-0.19,5.5-6.27,9.76-13.58,9.52c-0.41-0.02-0.82-0.04-1.23-0.09c1.59-1.91,3.38-3.74,4.29-5.54
							c3.16-6.28,3.56-13.59,3.93-20.48c0.01-0.13,0.02-0.26,0.02-0.39c0.32-5.81,0.63-11.62,0.95-17.42
							c0.03-0.58,0.07-1.17,0.29-1.7c0.68-1.59,2.7-1.94,4.38-2.34C420.26,183.49,427.74,169.85,429.31,155.47z"/>
						<path class="st23" d="M427.67,113.67c0,1.94-1.57,3.52-3.52,3.52c-1.94,0-3.52-1.57-3.52-3.52c0-1.94,1.57-3.51,3.52-3.51
							C426.1,110.15,427.67,111.73,427.67,113.67z"/>
						<path class="st23" d="M427.67,210.82c0,1.94-1.57,3.52-3.52,3.52c-1.94,0-3.52-1.57-3.52-3.52s1.57-3.52,3.52-3.52
							C426.1,207.3,427.67,208.88,427.67,210.82z"/>
						<circle class="st23" cx="360.48" cy="195.63" r="3.52"/>
						<circle class="st23" cx="431.53" cy="103.28" r="2.22"/>
						<circle class="st23" cx="427.67" cy="190.94" r="2.22"/>
						<circle class="st23" cx="366.21" cy="101.99" r="2.22"/>
						<circle class="st23" cx="433.74" cy="218.32" r="2.22"/>
						<circle class="st23" cx="354.67" cy="229.7" r="2.22"/>
					</g>
					<g>
						<linearGradient id="SVGID_15_" gradientUnits="userSpaceOnUse" x1="304.3627" y1="183.9037" x2="397.9" y2="183.9037">
							<stop  offset="1.694780e-03" style="stop-color:#00D4C8"/>
							<stop  offset="1" style="stop-color:#00D2C7;stop-opacity:0"/>
						</linearGradient>
						<path class="st29" d="M442.71,235.36V101.99c0,7.8-5.15,15.59-15.45,21.54c-20.6,11.9-54.01,11.89-74.61,0
							c-10.3-5.95-15.45-13.74-15.45-21.54v133.38l0,0c0,7.79,5.15,15.59,15.45,21.54c20.6,11.9,54.01,11.9,74.61,0
							C437.56,250.95,442.71,243.16,442.71,235.36z"/>
						<linearGradient id="SVGID_16_" gradientUnits="userSpaceOnUse" x1="464.2984" y1="183.9037" x2="398.642" y2="183.9037">
							<stop  offset="1.694780e-03" style="stop-color:#00D4C8"/>
							<stop  offset="1" style="stop-color:#00D2C7;stop-opacity:0"/>
						</linearGradient>
						<path class="st30" d="M442.71,235.36V101.99c0,7.8-5.15,15.59-15.45,21.54c-20.6,11.9-54.01,11.89-74.61,0
							c-10.3-5.95-15.45-13.74-15.45-21.54v133.38l0,0c0,7.79,5.15,15.59,15.45,21.54c20.6,11.9,54.01,11.9,74.61,0
							C437.56,250.95,442.71,243.16,442.71,235.36z"/>
						<linearGradient id="SVGID_17_" gradientUnits="userSpaceOnUse" x1="389.9554" y1="53.0505" x2="389.9554" y2="157.4953">
							<stop  offset="1.694780e-03" style="stop-color:#00D4C8"/>
							<stop  offset="1" style="stop-color:#00D2C7;stop-opacity:0"/>
						</linearGradient>
						<ellipse class="st31" cx="389.96" cy="101.99" rx="52.76" ry="30.46"/>
					</g>
				</g>
				<path class="st2" d="M345.1,187.13L345.1,187.13c-2.23-1.28-3.6-3.66-3.6-6.23v-48.5c0-1.07,1.15-1.73,2.08-1.2l0,0
					c2.28,1.32,3.69,3.75,3.69,6.39v48.29C347.27,186.99,346.06,187.69,345.1,187.13z"/>
				<path class="st2" d="M345.1,208.95L345.1,208.95c-2.23-1.28-3.6-3.66-3.6-6.23v-6.89c0-1.07,1.15-1.73,2.08-1.2l0,0
					c2.28,1.32,3.69,3.75,3.69,6.39v6.68C347.27,208.82,346.06,209.51,345.1,208.95z"/>
			</g>
			<g>
				<path class="st13" d="M524.39,328.66v-31.92h-71.34v31.92l0,0c0,5.27,3.48,10.54,10.45,14.56c13.93,8.04,36.52,8.04,50.45,0
					C520.91,339.2,524.39,333.93,524.39,328.66z"/>
				<linearGradient id="SVGID_18_" gradientUnits="userSpaceOnUse" x1="483.399" y1="323.0013" x2="537.0296" y2="323.0013">
					<stop  offset="0" style="stop-color:#FFFFFF;stop-opacity:0"/>
					<stop  offset="1" style="stop-color:#662D8D"/>
				</linearGradient>
				<path class="st32" d="M524.39,328.66v-31.92h-71.34v31.92l0,0c0,5.27,3.48,10.54,10.45,14.56c13.93,8.04,36.52,8.04,50.45,0
					C520.91,339.2,524.39,333.93,524.39,328.66z"/>
				<ellipse class="st2" cx="488.72" cy="296.75" rx="35.67" ry="20.59"/>
				<g>
					<linearGradient id="SVGID_19_" gradientUnits="userSpaceOnUse" x1="488.7206" y1="259.6609" x2="488.7206" y2="330.2801">
						<stop  offset="1.694780e-03" style="stop-color:#00D4C8"/>
						<stop  offset="1" style="stop-color:#00D2C7;stop-opacity:0"/>
					</linearGradient>
					<ellipse class="st33" cx="488.72" cy="292.75" rx="35.67" ry="20.59"/>
					<g>
						<path class="st23" d="M514.32,235.36c0,1.31-1.06,2.38-2.38,2.38c-1.31,0-2.38-1.06-2.38-2.38c0-1.31,1.06-2.38,2.38-2.38
							C513.26,232.99,514.32,234.05,514.32,235.36z"/>
						<circle class="st23" cx="509.57" cy="286.54" r="2.38"/>
						<path class="st23" d="M471.17,268.26c0,1.31-1.06,2.38-2.38,2.38c-1.31,0-2.38-1.06-2.38-2.38s1.06-2.38,2.38-2.38
							C470.1,265.88,471.17,266.94,471.17,268.26z"/>
						<path class="st23" d="M508.69,225.31c0,0.83-0.67,1.5-1.5,1.5s-1.5-0.67-1.5-1.5s0.67-1.5,1.5-1.5
							S508.69,224.48,508.69,225.31z"/>
						<path class="st23" d="M502,292.75c0,0.83-0.67,1.5-1.5,1.5s-1.5-0.67-1.5-1.5s0.67-1.5,1.5-1.5S502,291.92,502,292.75z"/>
						<path class="st23" d="M470.02,223.16c0,0.83-0.67,1.5-1.5,1.5s-1.5-0.67-1.5-1.5s0.67-1.5,1.5-1.5
							S470.02,222.33,470.02,223.16z"/>
						<path class="st23" d="M519.83,267.19c0,0.83-0.67,1.5-1.5,1.5c-0.83,0-1.5-0.67-1.5-1.5s0.67-1.5,1.5-1.5
							C519.16,265.69,519.83,266.36,519.83,267.19z"/>
						<path class="st23" d="M466.36,288.92c0,0.83-0.67,1.5-1.5,1.5s-1.5-0.67-1.5-1.5s0.67-1.5,1.5-1.5
							S466.36,288.09,466.36,288.92z"/>
						<g>
							<path class="st34" d="M511.1,261.43c0,0.11,0,0.23-0.01,0.34c-0.01,1.41-0.14,2.71-0.37,3.91c-0.14,0.73-0.32,1.42-0.54,2.07
								c-0.91,2.77-2.47,4.85-4.49,6.13l0.01,0.01l-0.18,0.11c-0.11,0.05-0.22,0.12-0.34,0.19l-5.51,3.2l-1.24-2.14
								c-2.15-0.3-4.48-1.1-6.93-2.52c-10.83-6.24-19.59-21.45-19.59-33.94c0-1.27,0.1-2.45,0.28-3.55c0.11-0.7,0.26-1.38,0.43-2.01
								c0.15-0.52,0.32-1.02,0.5-1.5l-1.29-2.23l5.57-3.21c0.19-0.11,0.37-0.22,0.56-0.32l0.3-0.18l0.01,0.03
								c2.26-1.09,5.01-1.31,8.07-0.51c0.63,0.17,1.29,0.37,1.96,0.63c1.05,0.4,2.12,0.91,3.21,1.54c0.08,0.04,0.17,0.1,0.25,0.15
								c0.48,0.28,0.96,0.59,1.45,0.92c0.94,0.62,1.87,1.32,2.77,2.09c0.4,0.34,0.81,0.69,1.2,1.06c0.8,0.73,1.57,1.52,2.33,2.34
								c0.34,0.37,0.69,0.77,1.02,1.17c0.7,0.81,1.36,1.65,2.01,2.52c0.29,0.41,0.59,0.83,0.87,1.25c0.61,0.87,1.18,1.78,1.72,2.7
								c0.26,0.44,0.52,0.88,0.76,1.32c0.52,0.94,1.01,1.89,1.45,2.85c0.22,0.47,0.43,0.92,0.62,1.39c0.43,1.01,0.81,2.01,1.16,3.02
								c0.18,0.5,0.33,0.99,0.48,1.49c0.33,1.07,0.61,2.15,0.81,3.21c0.12,0.52,0.22,1.06,0.3,1.58c0.19,1.17,0.32,2.33,0.37,3.47
								C511.08,260.51,511.1,260.98,511.1,261.43z"/>
							<g>
								<path class="st35" d="M488.29,225.95l-16.1,9.3l-1.31,0.76l-0.4-1.53l2.14-1.24l13.72-7.92
									C486.96,225.48,487.62,225.68,488.29,225.95z"/>
								<path class="st35" d="M493.19,228.56l-19.52,11.27l-0.4-1.53l18.47-10.66C492.23,227.92,492.71,228.23,493.19,228.56z"/>
								<path class="st35" d="M497.16,231.72l-20.69,11.94l-0.39-1.53l19.88-11.47C496.36,231,496.77,231.35,497.16,231.72z"/>
								<path class="st35" d="M500.5,235.23l-21.23,12.25l-0.4-1.53l20.61-11.89C499.83,234.43,500.17,234.83,500.5,235.23z"/>
								<path class="st35" d="M503.38,239l-21.31,12.3l-0.39-1.53l20.83-12.03C502.81,238.16,503.11,238.58,503.38,239z"/>
								<path class="st35" d="M505.86,243.03l-20.98,12.11l-0.4-1.53l20.62-11.9C505.37,242.15,505.63,242.59,505.86,243.03z"/>
								<path class="st35" d="M507.93,247.27l-20.25,11.7l-0.4-1.53l20.03-11.56C507.53,246.35,507.74,246.8,507.93,247.27z"/>
								<path class="st35" d="M509.57,251.77l-19.09,11.02l-0.39-1.53l19-10.98C509.27,250.78,509.42,251.28,509.57,251.77z"/>
								<path class="st35" d="M510.68,256.57l-17.4,10.06l-0.4-1.53l17.49-10.11C510.51,255.51,510.6,256.04,510.68,256.57z"/>
								<path class="st35" d="M511.1,261.43c0,0.11,0,0.23-0.01,0.34l-15,8.66l-0.4-1.53l15.37-8.87
									C511.08,260.51,511.1,260.98,511.1,261.43z"/>
								<path class="st35" d="M510.71,265.69c-0.14,0.73-0.32,1.42-0.54,2.07l-11.3,6.52l-0.39-1.53L510.71,265.69z"/>
							</g>
							
								<ellipse transform="matrix(0.866 -0.5 0.5 0.866 -61.5583 276.9123)" class="st36" cx="485.94" cy="253.32" rx="16" ry="27.71"/>
							<path class="st34" d="M489.52,237.71c-0.68,0.01-1.37,0.01-2.05,0c0.74,0.63,1.47,1.31,2.16,2.04l1.22-0.71
								C490.42,238.58,489.97,238.13,489.52,237.71z M472.18,235.24c-0.01,0.04-0.01,0.09-0.02,0.13c0.15,0.04,0.29,0.08,0.43,0.12
								c0.16-0.29,0.35-0.55,0.54-0.8L472.18,235.24z M489.52,237.71c-0.68,0.01-1.37,0.01-2.05,0c0.74,0.63,1.47,1.31,2.16,2.04
								l1.22-0.71C490.42,238.58,489.97,238.13,489.52,237.71z M472.16,235.37c0.15,0.04,0.29,0.08,0.43,0.12
								c0.16-0.29,0.35-0.55,0.54-0.8l-0.95,0.55C472.17,235.28,472.17,235.33,472.16,235.37z M501.9,261.64
								c-0.06-0.54-0.14-1.08-0.23-1.62c-0.19-1.08-0.44-2.16-0.75-3.26c-0.14-0.5-0.29-1-0.45-1.5c-0.33-1.01-0.71-2.03-1.13-3.03
								c-0.19-0.47-0.4-0.95-0.61-1.41c-0.44-0.97-0.92-1.93-1.43-2.86c-0.25-0.45-0.5-0.89-0.76-1.32
								c-0.54-0.92-1.12-1.82-1.73-2.69c-0.28-0.42-0.58-0.83-0.89-1.24c-0.64-0.88-1.32-1.72-2.02-2.52
								c-0.35-0.4-0.7-0.78-1.05-1.15c-0.43-0.46-0.88-0.91-1.33-1.33c-0.35-0.34-0.71-0.66-1.07-0.97
								c-0.41-0.37-0.82-0.71-1.24-1.04c-0.96-0.75-1.94-1.42-2.93-1.99c-0.02-0.02-0.04-0.03-0.06-0.04
								c-0.52-0.3-1.03-0.57-1.54-0.8c-1.44-0.68-2.84-1.13-4.14-1.3c-0.46-0.08-0.91-0.11-1.35-0.11c-0.7,0-1.33,0.08-1.91,0.23
								c-1.07,0.28-1.94,0.79-2.64,1.45l-0.17,0.17l-0.01,0.01c-0.5,0.51-0.91,1.1-1.24,1.74c-0.14,0.26-0.26,0.54-0.38,0.81v0.01
								c-0.89,2.17-1.05,4.62-1.05,6.13c0,10.71,7.5,24.16,16.65,30.18c0.4,0.28,0.81,0.53,1.22,0.77c2.51,1.45,4.94,2.22,7.03,2.22
								c0.74,0,1.42-0.09,2.02-0.26c0.8-0.22,1.49-0.58,2.07-1.04c0.3-0.22,0.57-0.47,0.81-0.75c0.46-0.5,0.83-1.07,1.14-1.68v-0.01
								c0.7-1.4,1.05-2.98,1.22-4.39c0.08-0.66,0.12-1.29,0.13-1.83c0.01-0.21,0.01-0.41,0.01-0.59
								C502.09,263.65,502.03,262.65,501.9,261.64z M500.42,267.93c-0.35,1.83-1.08,3.78-2.6,4.91c-0.8,0.59-1.83,0.96-3.13,0.96
								c-0.45,0-0.91-0.04-1.4-0.12h-0.01c-1.31-0.22-2.72-0.74-4.21-1.53h-0.02c-0.23-0.12-0.47-0.24-0.7-0.38
								c-9.32-5.38-17.19-19.01-17.19-29.76c0-1.3,0.13-3.41,0.84-5.28c0.16-0.43,0.36-0.85,0.59-1.24c0.16-0.29,0.35-0.55,0.54-0.8
								l0.01-0.01c0.73-0.89,1.72-1.55,3.07-1.77h0.01c0.3-0.04,0.62-0.07,0.97-0.07c1.21,0,2.57,0.3,4.01,0.88
								c0.55,0.22,1.11,0.49,1.68,0.79c0.22,0.11,0.43,0.23,0.65,0.36c0.81,0.47,1.6,0.99,2.38,1.58c0.43,0.32,0.86,0.66,1.28,1.02
								c0.1,0.07,0.18,0.14,0.27,0.24h0.01c0.74,0.63,1.47,1.31,2.16,2.04c0.37,0.37,0.72,0.75,1.06,1.14
								c0.71,0.79,1.39,1.63,2.05,2.5c0.3,0.4,0.6,0.82,0.89,1.24c0.61,0.87,1.19,1.77,1.73,2.69c0.26,0.43,0.52,0.87,0.76,1.32
								c0.51,0.94,0.99,1.9,1.42,2.87c0.22,0.46,0.42,0.93,0.61,1.4c0.42,1.01,0.79,2.03,1.1,3.05v0.01c0.17,0.51,0.31,1,0.45,1.5
								c0.29,1.1,0.53,2.2,0.69,3.28c0.09,0.55,0.16,1.1,0.21,1.64c0.07,0.76,0.11,1.51,0.11,2.24c0,0.4-0.01,0.88-0.05,1.41
								C500.62,266.63,500.54,267.27,500.42,267.93z M472.18,235.24c-0.01,0.04-0.01,0.09-0.02,0.13c0.15,0.04,0.29,0.08,0.43,0.12
								c0.16-0.29,0.35-0.55,0.54-0.8L472.18,235.24z M489.52,237.71c-0.68,0.01-1.37,0.01-2.05,0c0.74,0.63,1.47,1.31,2.16,2.04
								l1.22-0.71C490.42,238.58,489.97,238.13,489.52,237.71z"/>
							<g>
								<path class="st34" d="M491.4,256.81c-0.2-0.47-0.44-0.92-0.71-1.35c-0.57-0.91-1.29-1.74-2.08-2.48
									c-0.4-0.37-0.81-0.73-1.23-1.05c-0.31-0.25-0.62-0.48-0.93-0.7c-0.75-0.52-1.36-0.96-1.76-1.44
									c-0.32-0.38-0.5-0.78-0.5-1.26c0-0.08,0.01-0.16,0.03-0.22c0.07-0.27,0.29-0.37,0.59-0.34c0.33,0.02,0.78,0.2,1.23,0.46
									c0.16,0.09,0.32,0.19,0.48,0.3c0.9,0.57,1.72,1.29,2.46,2.28c0.09,0.11,0.17,0.22,0.25,0.34l1.51-1.36l0.02-0.02h0.01
									l0.37-0.33c-0.63-0.93-1.28-1.73-1.98-2.43c-0.38-0.38-0.78-0.73-1.19-1.06c-0.12-0.1-0.25-0.2-0.37-0.29v-2l-1.03-0.59
									l-1.53-0.88l-0.72-0.42v2.05c-0.53-0.19-1.04-0.31-1.5-0.35h-0.01c-1.08-0.08-1.92,0.3-2.28,1.32
									c-0.13,0.36-0.2,0.79-0.2,1.31c0,0.19,0.01,0.37,0.02,0.55c0.11,1.75,0.75,3.16,1.7,4.38l0.01,0.01
									c0.01,0.02,0.02,0.04,0.03,0.05c0.67,0.85,1.49,1.61,2.39,2.31c0.43,0.34,0.89,0.67,1.35,0.98
									c0.02,0.02,0.03,0.03,0.05,0.04c1.25,0.85,2,1.65,2.2,2.35c0.06,0.14,0.08,0.27,0.08,0.4c0,0.49-0.27,0.71-0.72,0.68
									c-0.37-0.01-0.85-0.19-1.42-0.52c-1.15-0.66-2.65-1.8-4-4.08l-2.12,1.58c1.42,2.58,2.78,4.06,4.42,5.23v2.12l3.28,1.89
									v-2.18c1.05,0.4,2.03,0.54,2.79,0.33c0.86-0.24,1.44-0.94,1.56-2.23v-0.01c0.02-0.17,0.03-0.35,0.03-0.54
									C491.98,258.64,491.77,257.69,491.4,256.81z"/>
							</g>
						</g>
					</g>
					<g>
						<linearGradient id="SVGID_20_" gradientUnits="userSpaceOnUse" x1="430.848" y1="265.2336" x2="494.0922" y2="265.2336">
							<stop  offset="1.694780e-03" style="stop-color:#00D4C8"/>
							<stop  offset="1" style="stop-color:#00D2C7;stop-opacity:0"/>
						</linearGradient>
						<path class="st37" d="M524.39,292.75v-75.62c0,5.27-3.48,10.54-10.45,14.56c-13.93,8.04-36.52,8.04-50.45,0
							c-6.97-4.02-10.45-9.29-10.45-14.56v75.62l0,0c0,5.27,3.48,10.54,10.45,14.56c13.93,8.04,36.52,8.04,50.45,0
							C520.91,303.29,524.39,298.02,524.39,292.75z"/>
						<linearGradient id="SVGID_21_" gradientUnits="userSpaceOnUse" x1="538.9868" y1="265.2336" x2="494.5939" y2="265.2336">
							<stop  offset="1.694780e-03" style="stop-color:#00D4C8"/>
							<stop  offset="1" style="stop-color:#00D2C7;stop-opacity:0"/>
						</linearGradient>
						<path class="st38" d="M524.39,292.75v-75.62c0,5.27-3.48,10.54-10.45,14.56c-13.93,8.04-36.52,8.04-50.45,0
							c-6.97-4.02-10.45-9.29-10.45-14.56v75.62l0,0c0,5.27,3.48,10.54,10.45,14.56c13.93,8.04,36.52,8.04,50.45,0
							C520.91,303.29,524.39,298.02,524.39,292.75z"/>
						<linearGradient id="SVGID_22_" gradientUnits="userSpaceOnUse" x1="488.7206" y1="184.038" x2="488.7206" y2="254.6572">
							<stop  offset="1.694780e-03" style="stop-color:#00D4C8"/>
							<stop  offset="1" style="stop-color:#00D2C7;stop-opacity:0"/>
						</linearGradient>
						<ellipse class="st39" cx="488.72" cy="217.12" rx="35.67" ry="20.59"/>
					</g>
				</g>
				<path class="st2" d="M458.39,260.14L458.39,260.14c-1.5-0.87-2.43-2.47-2.43-4.21v-21.85c0-0.72,0.78-1.17,1.41-0.81l0,0
					c1.54,0.89,2.49,2.54,2.49,4.32v21.7C459.86,260.04,459.04,260.51,458.39,260.14z"/>
				<path class="st2" d="M458.39,274.89L458.39,274.89c-1.5-0.87-2.43-2.47-2.43-4.21v-4.66c0-0.72,0.78-1.17,1.41-0.81l0,0
					c1.54,0.89,2.49,2.54,2.49,4.32v4.51C459.86,274.8,459.04,275.27,458.39,274.89z"/>
			</g>
			<g>
				<path class="st13" d="M326.76,228.93v-31.92h-71.34v31.92l0,0c0,5.27,3.48,10.54,10.45,14.56c13.93,8.04,36.52,8.04,50.45,0
					C323.28,239.47,326.76,234.2,326.76,228.93z"/>
				<linearGradient id="SVGID_23_" gradientUnits="userSpaceOnUse" x1="285.7677" y1="223.2697" x2="339.3983" y2="223.2697">
					<stop  offset="0" style="stop-color:#FFFFFF;stop-opacity:0"/>
					<stop  offset="1" style="stop-color:#662D8D"/>
				</linearGradient>
				<path class="st40" d="M326.76,228.93v-31.92h-71.34v31.92l0,0c0,5.27,3.48,10.54,10.45,14.56c13.93,8.04,36.52,8.04,50.45,0
					C323.28,239.47,326.76,234.2,326.76,228.93z"/>
				<ellipse class="st2" cx="291.09" cy="197.01" rx="35.67" ry="20.59"/>
				<g>
					<linearGradient id="SVGID_24_" gradientUnits="userSpaceOnUse" x1="291.0893" y1="159.9292" x2="291.0893" y2="230.5484">
						<stop  offset="1.694780e-03" style="stop-color:#00D4C8"/>
						<stop  offset="1" style="stop-color:#00D2C7;stop-opacity:0"/>
					</linearGradient>
					<ellipse class="st41" cx="291.09" cy="193.02" rx="35.67" ry="20.59"/>
					<g>
						<circle class="st42" cx="314.31" cy="135.63" r="2.38"/>
						<circle class="st42" cx="311.94" cy="186.81" r="2.38"/>
						<path class="st42" d="M273.54,168.52c0,1.31-1.06,2.38-2.38,2.38s-2.38-1.06-2.38-2.38c0-1.31,1.06-2.38,2.38-2.38
							S273.54,167.21,273.54,168.52z"/>
						<path class="st42" d="M311.06,125.58c0,0.83-0.67,1.5-1.5,1.5s-1.5-0.67-1.5-1.5c0-0.83,0.67-1.5,1.5-1.5
							S311.06,124.75,311.06,125.58z"/>
						<path class="st42" d="M304.37,193.02c0,0.83-0.67,1.5-1.5,1.5s-1.5-0.67-1.5-1.5s0.67-1.5,1.5-1.5
							S304.37,192.19,304.37,193.02z"/>
						<path class="st42" d="M272.39,123.43c0,0.83-0.67,1.5-1.5,1.5s-1.5-0.67-1.5-1.5s0.67-1.5,1.5-1.5S272.39,122.6,272.39,123.43
							z"/>
						<path class="st42" d="M322.2,167.45c0,0.83-0.67,1.5-1.5,1.5s-1.5-0.67-1.5-1.5s0.67-1.5,1.5-1.5S322.2,166.63,322.2,167.45z"
							/>
						<path class="st42" d="M268.73,189.19c0,0.83-0.67,1.5-1.5,1.5s-1.5-0.67-1.5-1.5s0.67-1.5,1.5-1.5
							S268.73,188.36,268.73,189.19z"/>
						<g>
							<path class="st42" d="M313.47,161.7c0,0.11,0,0.23-0.01,0.34c-0.01,1.41-0.14,2.71-0.37,3.91c-0.14,0.73-0.32,1.42-0.54,2.07
								c-0.91,2.77-2.47,4.85-4.49,6.13l0.01,0.01l-0.18,0.11c-0.11,0.05-0.22,0.12-0.34,0.19l-5.51,3.2l-1.24-2.14
								c-2.15-0.3-4.48-1.1-6.93-2.52c-10.83-6.24-19.59-21.45-19.59-33.94c0-1.27,0.1-2.45,0.28-3.55c0.11-0.7,0.26-1.38,0.43-2.01
								c0.15-0.52,0.32-1.02,0.5-1.5l-1.3-2.23l5.57-3.21c0.19-0.11,0.37-0.22,0.56-0.32l0.3-0.18l0.01,0.03
								c2.26-1.09,5.01-1.31,8.07-0.51c0.63,0.17,1.29,0.37,1.96,0.63c1.05,0.4,2.12,0.91,3.21,1.54c0.08,0.04,0.17,0.1,0.25,0.15
								c0.48,0.28,0.96,0.59,1.45,0.92c0.94,0.62,1.87,1.32,2.77,2.09c0.4,0.34,0.81,0.69,1.2,1.06c0.8,0.73,1.57,1.52,2.33,2.34
								c0.34,0.37,0.69,0.77,1.02,1.17c0.7,0.81,1.36,1.65,2.01,2.52c0.29,0.41,0.59,0.83,0.87,1.25c0.61,0.87,1.18,1.78,1.72,2.7
								c0.26,0.44,0.52,0.88,0.76,1.32c0.52,0.94,1.01,1.89,1.45,2.85c0.22,0.47,0.43,0.92,0.62,1.39c0.43,1.01,0.81,2.01,1.16,3.02
								c0.18,0.5,0.33,0.99,0.48,1.49c0.33,1.07,0.61,2.15,0.81,3.21c0.12,0.52,0.22,1.06,0.3,1.58c0.19,1.17,0.32,2.33,0.37,3.47
								C313.45,160.78,313.47,161.24,313.47,161.7z"/>
							<linearGradient id="SVGID_25_" gradientUnits="userSpaceOnUse" x1="288.6308" y1="140.3" x2="309.5259" y2="180.528">
								<stop  offset="0" style="stop-color:#FFFFFF;stop-opacity:0"/>
								<stop  offset="1" style="stop-color:#662D8D"/>
							</linearGradient>
							<path class="st43" d="M313.47,161.7c0,0.11,0,0.23-0.01,0.34c-0.01,1.41-0.14,2.71-0.37,3.91c-0.14,0.73-0.32,1.42-0.54,2.07
								c-0.91,2.77-2.47,4.85-4.49,6.13l0.01,0.01l-0.18,0.11c-0.11,0.05-0.22,0.12-0.34,0.19l-5.51,3.2l-1.24-2.14
								c-2.15-0.3-4.48-1.1-6.93-2.52c-10.83-6.24-19.59-21.45-19.59-33.94c0-1.27,0.1-2.45,0.28-3.55c0.11-0.7,0.26-1.38,0.43-2.01
								c0.15-0.52,0.32-1.02,0.5-1.5l-1.3-2.23l5.57-3.21c0.19-0.11,0.37-0.22,0.56-0.32l0.3-0.18l0.01,0.03
								c2.26-1.09,5.01-1.31,8.07-0.51c0.63,0.17,1.29,0.37,1.96,0.63c1.05,0.4,2.12,0.91,3.21,1.54c0.08,0.04,0.17,0.1,0.25,0.15
								c0.48,0.28,0.96,0.59,1.45,0.92c0.94,0.62,1.87,1.32,2.77,2.09c0.4,0.34,0.81,0.69,1.2,1.06c0.8,0.73,1.57,1.52,2.33,2.34
								c0.34,0.37,0.69,0.77,1.02,1.17c0.7,0.81,1.36,1.65,2.01,2.52c0.29,0.41,0.59,0.83,0.87,1.25c0.61,0.87,1.18,1.78,1.72,2.7
								c0.26,0.44,0.52,0.88,0.76,1.32c0.52,0.94,1.01,1.89,1.45,2.85c0.22,0.47,0.43,0.92,0.62,1.39c0.43,1.01,0.81,2.01,1.16,3.02
								c0.18,0.5,0.33,0.99,0.48,1.49c0.33,1.07,0.61,2.15,0.81,3.21c0.12,0.52,0.22,1.06,0.3,1.58c0.19,1.17,0.32,2.33,0.37,3.47
								C313.45,160.78,313.47,161.24,313.47,161.7z"/>
							
								<ellipse transform="matrix(0.866 -0.5 0.5 0.866 -38.1701 164.7336)" class="st44" cx="288.31" cy="153.59" rx="16" ry="27.71"/>
							
								<ellipse transform="matrix(0.866 -0.5 0.5 0.866 -38.1701 164.7339)" class="st45" cx="288.31" cy="153.59" rx="12.62" ry="21.85"/>
							
								<ellipse transform="matrix(0.866 -0.5 0.5 0.866 -38.1701 164.7336)" class="st45" cx="288.31" cy="153.59" rx="8.8" ry="15.24"/>
							<path class="st45" d="M294.68,157.27c0,4.07-2.85,5.71-6.38,3.68c-3.52-2.03-6.38-6.98-6.38-11.04s2.85-5.71,6.38-3.68
								C291.83,148.26,294.68,153.21,294.68,157.27z"/>
							<path class="st2" d="M290.82,155.04c0,1.6-1.12,2.25-2.51,1.45c-1.39-0.8-2.51-2.74-2.51-4.34c0-1.6,1.12-2.25,2.51-1.45
								C289.69,151.5,290.82,153.44,290.82,155.04z"/>
						</g>
					</g>
					<g>
						<linearGradient id="SVGID_26_" gradientUnits="userSpaceOnUse" x1="233.2168" y1="165.5019" x2="296.4609" y2="165.5019">
							<stop  offset="1.694780e-03" style="stop-color:#00D4C8"/>
							<stop  offset="1" style="stop-color:#00D2C7;stop-opacity:0"/>
						</linearGradient>
						<path class="st46" d="M326.76,193.01v-75.62c0,5.27-3.48,10.54-10.45,14.56c-13.93,8.04-36.52,8.04-50.45,0
							c-6.97-4.02-10.45-9.29-10.45-14.56v75.62l0,0c0,5.27,3.48,10.54,10.45,14.56c13.93,8.04,36.52,8.04,50.45,0
							C323.28,203.56,326.76,198.29,326.76,193.01z"/>
						<linearGradient id="SVGID_27_" gradientUnits="userSpaceOnUse" x1="341.3554" y1="165.5019" x2="296.9626" y2="165.5019">
							<stop  offset="1.694780e-03" style="stop-color:#00D4C8"/>
							<stop  offset="1" style="stop-color:#00D2C7;stop-opacity:0"/>
						</linearGradient>
						<path class="st47" d="M326.76,193.01v-75.62c0,5.27-3.48,10.54-10.45,14.56c-13.93,8.04-36.52,8.04-50.45,0
							c-6.97-4.02-10.45-9.29-10.45-14.56v75.62l0,0c0,5.27,3.48,10.54,10.45,14.56c13.93,8.04,36.52,8.04,50.45,0
							C323.28,203.56,326.76,198.29,326.76,193.01z"/>
						<linearGradient id="SVGID_28_" gradientUnits="userSpaceOnUse" x1="291.0893" y1="84.3063" x2="291.0893" y2="154.9255">
							<stop  offset="1.694780e-03" style="stop-color:#00D4C8"/>
							<stop  offset="1" style="stop-color:#00D2C7;stop-opacity:0"/>
						</linearGradient>
						<ellipse class="st48" cx="291.09" cy="117.39" rx="35.67" ry="20.59"/>
					</g>
				</g>
				<path class="st2" d="M260.76,160.41L260.76,160.41c-1.5-0.87-2.43-2.47-2.43-4.21v-21.85c0-0.72,0.78-1.17,1.4-0.81l0,0
					c1.54,0.89,2.49,2.54,2.49,4.32v21.7C262.23,160.31,261.41,160.78,260.76,160.41z"/>
				<path class="st2" d="M260.76,175.16L260.76,175.16c-1.5-0.87-2.43-2.47-2.43-4.21v-4.66c0-0.72,0.78-1.17,1.4-0.81l0,0
					c1.54,0.89,2.49,2.54,2.49,4.32v4.51C262.23,175.07,261.41,175.54,260.76,175.16z"/>
			</g>
			<g>
				<path class="st49" d="M399.9,283.3c0,0-5.89,6.26-6.27,12.49l1.15,2.45l2.37-1.73c0,0,1.68-8.18,4.74-10.63L399.9,283.3z"/>
				<path class="st50" d="M413.72,356.67c0,0,0.41,3.87-1.49,3.67c-2.21-0.23-9.05-4.84-7.53-6.29c1.52-1.45,7.23,1.18,7.23,1.18
					L413.72,356.67z"/>
				<path class="st50" d="M401.56,362.41c0,0,0.41,3.87-1.49,3.67c-2.21-0.23-9.05-4.84-7.53-6.29c1.52-1.45,7.23,1.18,7.23,1.18
					L401.56,362.41z"/>
				<rect x="403.29" y="265.8" class="st51" width="4.06" height="5.73"/>
				<path class="st49" d="M398.97,296.71c0,0-6.53,14.91-1.63,66.06c0.03,0.26,0.17,0.5,0.4,0.63c0.86,0.49,3.03,1.37,4.15-1.52
					c0.03-0.08,0.05-0.16,0.05-0.24l4.25-53.59c0.03-0.86,0.48-0.9,0.57-0.04l2.61,48.99c0.02,0.37,0.25,0.69,0.6,0.82
					c1.14,0.43,3.65,0.93,4.12-2.67c0,0,4.44-53-0.74-60.18L398.97,296.71z"/>
				<path class="st50" d="M413.36,293.34c-0.12,0.22-0.26,0.43-0.43,0.61c-1.49,1.52-5.49,4.27-13.47,1.41
					c-0.18-0.06-0.34-0.16-0.48-0.28v1.64c0.14,0.12,0.3,0.22,0.48,0.28c7.98,2.85,11.99,0.11,13.47-1.41
					c0.18-0.18,0.32-0.39,0.43-0.61V293.34z"/>
				<path class="st2" d="M429.59,244.73c0,0,0-3.47,0.48-3.54c0.33-0.05,0.32,1.1,0.32,1.1s0.39-2.58,0.95-2.43
					c0.2,0.05-0.05,1.63-0.05,1.63s0.24-0.91,1.68,0c0.45,0.28,0.34,1.13-1.37,3.82L429.59,244.73z"/>
				<path class="st52" d="M412.5,268c0,0,12.15-1.05,16.95-23.54c0,0,1.29-0.24,2.33,0.82c0,0-0.71,27.04-17.53,32.23L412.5,268z"/>
				<path class="st53" d="M403.29,269.59l4.06-0.92l6.4-0.83c1.57-0.21,2.7,2.06,2.81,4.49c0.21,4.62-2.88,20.32-2.88,20.32
					c-0.04,0.63-0.3,1.24-0.74,1.69c-1.48,1.52-5.48,4.29-13.49,1.42c-0.51-0.18-0.88-0.63-0.95-1.16l-2.98-18.57
					c-0.16-0.97,0.26-1.94,1.06-2.5L403.29,269.59z"/>
				<path class="st2" d="M398.24,258.6c0,0,0.49,5.55,2.78,8.39c2.29,2.84,6.73-1.85,7.39-3.22c0.66-1.37,1.73-9.94-5.15-9.94
					C398.8,253.83,398.02,256.6,398.24,258.6z"/>
				<path class="st49" d="M404.88,262.05c0,0-2.31-1.64-3.17-4.43c0,0-0.51-0.3-3.33,2.06c0,0-3.18-0.01-1.7-3.36
					c1.48-3.35,7.59-7.59,10.53-4.24c0,0,5.6-0.93,4.52,6.32c-1.43,9.55-5.9,7.98-7.02,5.8
					C403.6,262.05,404.88,262.05,404.88,262.05z"/>
				<path class="st2" d="M403.43,260.93c0,0,0.93-1.83,1.69-0.74c0.76,1.09-0.16,3.29-1.83,3.58L403.43,260.93z"/>
				<polygon class="st49" points="378.11,267.94 386.73,276.53 395.38,271.39 386.73,262.54 				"/>
				<polyline class="st54" points="386,272.53 386,270.61 387.81,270.61 387.81,266.56 				"/>
				<polyline class="st54" points="386.1,267.68 387.71,266.06 389.53,267.88 				"/>
				<path class="st2" d="M381.85,271.66c-0.03-0.05,0.68-0.78,1.21-1.33c0.16-0.16,0.42,0,0.36,0.21l-0.36,1.27
					c0,0,1.83-0.51,0.8,2.51l-1.78,0.48L381.85,271.66z"/>
				<path class="st52" d="M384.02,274.28c0,0,9.45,16.97,3.83,18.04c-5.62,1.06-5.89-17.48-5.89-17.48S382.51,274.06,384.02,274.28z
					"/>
				<path class="st52" d="M396.57,273.53c0,0-2.54,1.27-6.06,6.29c-4.79,6.82-6.99,10.89-2.54,12.39c1.13,0.38,8.9-7.77,8.9-7.77
					S400.03,277.69,396.57,273.53z"/>
				<path class="st52" d="M402.47,270.08l0.82-1.4c0,0,1.39-0.85,4.06-0.91l0.97,0.83C408.32,268.59,408.12,269.55,402.47,270.08z"
					/>
			</g>
			<g>
				<polygon class="st13" points="319.61,253.3 288.91,322.53 286.12,320.87 286.12,280.64 				"/>
				<polygon class="st13" points="322.4,254.95 322.4,303.2 288.91,322.53 288.91,282.3 				"/>
				<linearGradient id="SVGID_29_" gradientUnits="userSpaceOnUse" x1="289.3166" y1="256.0669" x2="327.2012" y2="331.836">
					<stop  offset="0" style="stop-color:#FFFFFF;stop-opacity:0"/>
					<stop  offset="1" style="stop-color:#662D8D"/>
				</linearGradient>
				<polygon class="st55" points="322.4,254.95 322.4,303.2 288.91,322.53 288.91,282.3 				"/>
			</g>
			<g>
				<polygon class="st13" points="373.53,284.38 342.83,353.62 340.04,351.96 340.04,311.72 				"/>
				<polygon class="st13" points="376.32,286.04 376.32,334.28 342.83,353.62 342.83,313.38 				"/>
				<linearGradient id="SVGID_30_" gradientUnits="userSpaceOnUse" x1="315.1088" y1="319.8271" x2="418.0594" y2="319.8271">
					<stop  offset="0" style="stop-color:#FFFFFF;stop-opacity:0"/>
					<stop  offset="1" style="stop-color:#662D8D"/>
				</linearGradient>
				<polygon class="st56" points="376.32,286.04 376.32,334.28 342.83,353.62 342.83,313.38 				"/>
			</g>
			<polygon class="st13" points="342.83,316.08 286.12,283.33 376.32,286.04 376.32,288.73 			"/>
			<linearGradient id="SVGID_31_" gradientUnits="userSpaceOnUse" x1="315.1087" y1="299.7046" x2="418.0588" y2="299.7046">
				<stop  offset="0" style="stop-color:#FFFFFF;stop-opacity:0"/>
				<stop  offset="1" style="stop-color:#662D8D"/>
			</linearGradient>
			<polygon class="st57" points="342.83,316.08 286.12,283.33 376.32,286.04 376.32,288.73 			"/>
			<polygon class="st2" points="342.83,313.38 286.12,280.64 319.61,253.3 376.32,286.04 			"/>
			<polygon class="st49" points="342.06,308.88 292.72,280.37 320.38,257.79 369.72,286.3 			"/>
			<linearGradient id="SVGID_32_" gradientUnits="userSpaceOnUse" x1="327.3261" y1="260.2159" x2="324.6782" y2="286.3163">
				<stop  offset="3.946110e-03" style="stop-color:#FFFFFF;stop-opacity:0"/>
				<stop  offset="1" style="stop-color:#FDC870"/>
			</linearGradient>
			<path class="st58" d="M329.59,283.91l-18.81-10.87c-0.43-0.25-0.48-0.86-0.09-1.18l9.91-8.09c0.53-0.43,1.27-0.49,1.86-0.15
				l18.55,10.72c0.56,0.32,0.62,1.11,0.12,1.51l-9.68,7.91C330.92,284.2,330.18,284.26,329.59,283.91z"/>
			<linearGradient id="SVGID_33_" gradientUnits="userSpaceOnUse" x1="318.3986" y1="276.2172" x2="311.7477" y2="288.8309">
				<stop  offset="0" style="stop-color:#BA68C8;stop-opacity:0"/>
				<stop  offset="1" style="stop-color:#BA68C8"/>
			</linearGradient>
			<path class="st59" d="M321.16,290.65l-18.81-10.87c-0.43-0.25-0.48-0.86-0.09-1.18l4.9-3.91c0.53-0.43,1.27-0.49,1.86-0.15
				l18.55,10.72c0.56,0.32,0.62,1.11,0.12,1.51l-4.67,3.72C322.49,290.94,321.75,291,321.16,290.65z"/>
			<g>
				<linearGradient id="SVGID_34_" gradientUnits="userSpaceOnUse" x1="334.015" y1="286.0301" x2="327.8257" y2="297.7683">
					<stop  offset="1.694780e-03" style="stop-color:#00D4C8"/>
					<stop  offset="1" style="stop-color:#00D2C7;stop-opacity:0"/>
				</linearGradient>
				<path class="st60" d="M330.67,296.35l-6.13-3.51c-0.43-0.25-0.48-0.86-0.09-1.18l4.9-3.91c0.53-0.43,1.27-0.49,1.86-0.15
					l5.87,3.36c0.56,0.32,0.62,1.11,0.12,1.51l-4.67,3.72C332,296.63,331.26,296.69,330.67,296.35z"/>
				<linearGradient id="SVGID_35_" gradientUnits="userSpaceOnUse" x1="343.7804" y1="285.7903" x2="337.7949" y2="305.2431">
					<stop  offset="1.694780e-03" style="stop-color:#EF5350"/>
					<stop  offset="1" style="stop-color:#EF5350;stop-opacity:0"/>
				</linearGradient>
				<path class="st61" d="M340.27,301.77l-6.54-3.87c-0.43-0.25-0.48-0.86-0.09-1.18l4.9-3.91c0.53-0.43,1.27-0.49,1.86-0.15
					l6.28,3.72c0.56,0.32,0.62,1.11,0.12,1.51l-4.67,3.72C341.6,302.06,340.86,302.12,340.27,301.77z"/>
			</g>
			<polygon class="st13" points="342.83,316.08 342.83,313.38 286.12,280.64 286.12,283.33 			"/>
			<path class="st62" d="M314.48,272.46c0.05-0.1,9.13-0.73,9.13-0.73l1.76,3.17h10.94l-2.37-1.13"/>
			<line class="st62" x1="336.3" y1="274.9" x2="336.3" y2="276.78"/>
			<ellipse class="st44" cx="346.45" cy="278.66" rx="1.14" ry="0.66"/>
			<ellipse class="st63" cx="349.75" cy="280.54" rx="1.14" ry="0.66"/>
			<path class="st44" d="M353.85,282.89c-0.45,0.26-1.17,0.26-1.61,0c-0.45-0.26-0.45-0.67,0-0.93c0.45-0.26,1.17-0.26,1.61,0
				C354.29,282.21,354.29,282.63,353.85,282.89z"/>
			<path class="st44" d="M357.14,284.77c-0.44,0.26-1.17,0.26-1.61,0c-0.45-0.26-0.45-0.67,0-0.93c0.44-0.26,1.17-0.26,1.61,0
				C357.59,284.09,357.59,284.51,357.14,284.77z"/>
			<path class="st44" d="M360.44,286.65c-0.45,0.26-1.17,0.26-1.61,0c-0.45-0.26-0.45-0.67,0-0.93c0.45-0.26,1.17-0.26,1.61,0
				C360.88,285.97,360.88,286.39,360.44,286.65z"/>
			<path class="st44" d="M344.55,281.19c-0.45,0.26-1.17,0.26-1.61,0c-0.45-0.26-0.45-0.67,0-0.93c0.45-0.26,1.17-0.26,1.61,0
				C344.99,280.51,344.99,280.93,344.55,281.19z"/>
			<path class="st44" d="M347.84,283.07c-0.45,0.26-1.17,0.26-1.61,0c-0.45-0.26-0.45-0.67,0-0.93c0.45-0.26,1.17-0.26,1.61,0
				C348.29,282.39,348.29,282.81,347.84,283.07z"/>
			<path class="st44" d="M351.14,284.95c-0.45,0.26-1.17,0.26-1.61,0c-0.45-0.26-0.45-0.67,0-0.93c0.45-0.26,1.17-0.26,1.61,0
				C351.58,284.27,351.58,284.69,351.14,284.95z"/>
			<path class="st63" d="M354.43,286.83c-0.45,0.26-1.17,0.26-1.61,0c-0.45-0.26-0.45-0.67,0-0.93s1.17-0.26,1.61,0
				C354.88,286.15,354.88,286.57,354.43,286.83z"/>
			<path class="st63" d="M357.73,288.71c-0.44,0.26-1.17,0.26-1.61,0c-0.45-0.26-0.45-0.67,0-0.93c0.45-0.26,1.17-0.26,1.61,0
				C358.17,288.03,358.17,288.45,357.73,288.71z"/>
			<path class="st63" d="M341.84,283.25c-0.45,0.26-1.17,0.26-1.61,0c-0.44-0.26-0.44-0.67,0-0.93c0.45-0.26,1.17-0.26,1.61,0
				C342.28,282.57,342.28,282.99,341.84,283.25z"/>
			<path class="st44" d="M345.13,285.13c-0.45,0.26-1.17,0.26-1.61,0c-0.45-0.26-0.45-0.67,0-0.93c0.45-0.26,1.17-0.26,1.61,0
				C345.58,284.45,345.58,284.87,345.13,285.13z"/>
			<ellipse class="st63" cx="347.62" cy="286.54" rx="1.14" ry="0.66"/>
			<path class="st44" d="M351.72,288.89c-0.45,0.26-1.17,0.26-1.61,0c-0.45-0.26-0.45-0.67,0-0.93c0.45-0.26,1.17-0.26,1.61,0
				C352.17,288.21,352.17,288.63,351.72,288.89z"/>
			<path class="st44" d="M355.02,290.77c-0.45,0.26-1.17,0.26-1.61,0c-0.45-0.26-0.45-0.67,0-0.93c0.44-0.26,1.17-0.26,1.61,0
				C355.46,290.09,355.46,290.51,355.02,290.77z"/>
			<path class="st44" d="M339.12,285.31c-0.44,0.26-1.17,0.26-1.61,0c-0.45-0.26-0.45-0.67,0-0.93c0.45-0.26,1.17-0.26,1.61,0
				C339.57,284.63,339.57,285.05,339.12,285.31z"/>
			<path class="st44" d="M342.42,287.19c-0.45,0.26-1.17,0.26-1.61,0c-0.45-0.26-0.45-0.67,0-0.93c0.45-0.26,1.17-0.26,1.61,0
				C342.87,286.51,342.87,286.93,342.42,287.19z"/>
			<path class="st44" d="M345.72,289.07c-0.45,0.26-1.17,0.26-1.61,0c-0.45-0.26-0.45-0.67,0-0.93c0.45-0.26,1.17-0.26,1.61,0
				C346.16,288.39,346.16,288.81,345.72,289.07z"/>
			<path class="st44" d="M349.01,290.95c-0.45,0.26-1.17,0.26-1.61,0c-0.45-0.26-0.45-0.67,0-0.93c0.44-0.26,1.17-0.26,1.61,0
				C349.46,290.27,349.46,290.69,349.01,290.95z"/>
			<path class="st63" d="M352.31,292.83c-0.45,0.26-1.17,0.26-1.61,0c-0.45-0.26-0.45-0.67,0-0.93c0.45-0.26,1.17-0.26,1.61,0
				C352.75,292.15,352.75,292.57,352.31,292.83z"/>
			<ellipse class="st63" cx="335.61" cy="286.9" rx="1.14" ry="0.66"/>
			<ellipse class="st44" cx="338.9" cy="288.78" rx="1.14" ry="0.66"/>
			<path class="st63" d="M343,291.13c-0.45,0.26-1.17,0.26-1.61,0c-0.45-0.26-0.45-0.67,0-0.93c0.45-0.26,1.17-0.26,1.61,0
				C343.45,290.45,343.45,290.87,343,291.13z"/>
			<ellipse class="st44" cx="345.49" cy="292.54" rx="1.14" ry="0.66"/>
			<path class="st63" d="M349.6,294.89c-0.44,0.26-1.17,0.26-1.61,0c-0.45-0.26-0.45-0.67,0-0.93c0.45-0.26,1.17-0.26,1.61,0
				C350.04,294.21,350.04,294.63,349.6,294.89z"/>
			<g>
				<line class="st64" x1="307.88" y1="276.55" x2="324.58" y2="286.32"/>
				<line class="st64" x1="306.66" y1="277.52" x2="323.36" y2="287.29"/>
				<line class="st64" x1="305.44" y1="278.49" x2="322.14" y2="288.26"/>
			</g>
			<g>
				<path class="st49" d="M299.31,277.54c0,0,6.21,6.61,6.62,13.18l-1.21,2.59l-2.5-1.83c0,0-1.78-8.64-5-11.22L299.31,277.54z"/>
				<path class="st50" d="M284.72,354.98c0,0-0.43,4.09,1.57,3.88c2.33-0.25,9.55-5.11,7.94-6.64c-1.61-1.53-7.63,1.24-7.63,1.24
					L284.72,354.98z"/>
				<path class="st50" d="M297.55,361.03c0,0-0.43,4.09,1.57,3.88c2.33-0.25,9.55-5.11,7.94-6.64c-1.61-1.53-7.63,1.24-7.63,1.24
					L297.55,361.03z"/>
				
					<rect x="291.44" y="259.07" transform="matrix(-1 -1.224647e-16 1.224647e-16 -1 587.1666 524.1984)" class="st2" width="4.28" height="6.05"/>
				<path class="st49" d="M300.29,291.7c0,0,6.89,15.73,1.72,69.73c-0.03,0.28-0.18,0.53-0.42,0.67c-0.91,0.52-3.19,1.45-4.38-1.6
					c-0.03-0.08-0.05-0.17-0.06-0.26l-4.49-56.56c-0.04-0.91-0.51-0.95-0.6-0.05l-2.76,51.71c-0.02,0.39-0.27,0.73-0.63,0.87
					c-1.21,0.45-3.85,0.98-4.34-2.82c0,0-4.68-55.94,0.79-63.52L300.29,291.7z"/>
				<path class="st50" d="M285.11,288.14c0.12,0.23,0.27,0.45,0.46,0.64c1.57,1.61,5.8,4.5,14.22,1.49c0.19-0.07,0.36-0.17,0.5-0.3
					v1.73c-0.15,0.13-0.31,0.23-0.5,0.3c-8.42,3.01-12.65,0.12-14.22-1.49c-0.19-0.19-0.33-0.41-0.46-0.64V288.14z"/>
				<path class="st53" d="M295.73,263.07l-4.28-0.97l-6.76-0.88c-1.65-0.22-2.84,2.18-2.96,4.74c-0.23,4.87,3.04,21.45,3.04,21.45
					c0.04,0.67,0.32,1.31,0.79,1.79c1.56,1.6,5.79,4.52,14.23,1.5c0.53-0.19,0.92-0.66,1.01-1.22l3.15-19.6
					c0.16-1.02-0.27-2.05-1.12-2.64L295.73,263.07z"/>
				<path class="st2" d="M301.06,251.46c0,0-0.52,5.85-2.94,8.85c-2.42,3-7.11-1.95-7.8-3.4c-0.7-1.44-1.83-10.49,5.44-10.49
					C300.47,246.43,301.3,249.36,301.06,251.46z"/>
				<path class="st49" d="M294.05,255.11c0,0,2.44-1.73,3.35-4.67c0,0,0.54-0.32,3.51,2.17c0,0,3.36-0.01,1.8-3.55
					s-8.01-8.01-11.11-4.48c0,0-5.91-0.98-4.77,6.67c1.51,10.08,6.23,8.42,7.41,6.12C295.4,255.11,294.05,255.11,294.05,255.11z"/>
				<path class="st2" d="M295.58,253.93c0,0-0.98-1.93-1.79-0.78s0.17,3.47,1.93,3.77L295.58,253.93z"/>
				<path class="st2" d="M330.99,288.39c0.06-0.02,0.64,0.88,1.07,1.56c0.12,0.2-0.1,0.43-0.3,0.32l-1.22-0.68
					c0,0,0.08,2.01-2.78,0.22l-0.07-1.95L330.99,288.39z"/>
				<path class="st52" d="M328.3,287.8c0,0-17.82-10.13-19-4.21c-1.18,5.92,18.39,6.38,18.39,6.38S328.52,289.4,328.3,287.8z"/>
				<path class="st52" d="M302.82,267.23c0,0,2.68,1.34,6.4,6.64c5.05,7.2,7.38,11.49,2.68,13.08c-1.19,0.4-9.39-8.2-9.39-8.2
					S299.17,271.62,302.82,267.23z"/>
				<path class="st52" d="M296.59,263.58l-0.87-1.48c0,0-1.47-0.9-4.28-0.96l-1.02,0.87C290.42,262.01,290.63,263.03,296.59,263.58z
					"/>
			</g>
		</g>
		
			<linearGradient id="SVGID_36_" gradientUnits="userSpaceOnUse" x1="-761.4773" y1="337.5787" x2="-761.4773" y2="246.8764" gradientTransform="matrix(-0.999 -0.0439 0.0439 -0.999 -268.9176 438.0486)">
			<stop  offset="1.860120e-03" style="stop-color:#AC24B9"/>
			<stop  offset="1" style="stop-color:#2E2142"/>
		</linearGradient>
		<path class="st65" d="M489.43,155.07c3.53,9.57,16.66,21.85,27.45,17.25c5.34-2.27,8.24-9.75,4.67-14.32
			c-2.54-3.25-7.1-4.05-10.38-6.55c-2.93-2.23-4.65-5.65-6.88-8.59c-2.22-2.94-5.51-5.63-9.17-5.22
			c-7.67,0.86-7.69,11.44-5.88,16.86C489.3,154.7,489.37,154.89,489.43,155.07z"/>
	</g>
</g>
<g id="Designed_by_Freepik">
</g>
</svg>
